<svg xmlns="http://www.w3.org/2000/svg" width="192.043" height="26.894" viewBox="0 0 192.043 26.894">
  <g>
    <g>
      <g>
        <path fill="#21A4FF" d="M189.29 5.022l-.016-.024.016-.025.478-.133 2.275-1.417-.494-.924-.493-.924-2.275 1.42-.346.38-.027.003-.013-.03.133-.512V0h-1.977v2.838l.135.51-.014.03-.027-.003-.346-.38-2.274-1.42-.492.924-.494.923 2.275 1.417.477.133.02.025-.02.024-.477.134-2.275 1.418.494.924.492.922 2.275-1.418.347-.38.027-.005.014.028-.135.514v2.837h1.977V7.16l-.133-.515.012-.028.026.005.346.38 2.275 1.418.492-.922.493-.924-2.275-1.418"/>
      </g>
    </g>
  </g>
  <g>
    <g>
      <g>
        <path fill="#FFF" d="M64.588 10.096c-3.598 3.567-3.598 9.354 0 12.924 3.6 3.567 9.437 3.567 13.035 0 3.6-3.57 3.6-9.354 0-12.924-3.598-3.568-9.434-3.57-13.035 0zm10.72 10.627c-2.32 2.3-6.082 2.3-8.4 0-2.32-2.302-2.32-6.03 0-8.33 2.318-2.3 6.08-2.3 8.4 0 2.32 2.3 2.32 6.028 0 8.33zM0 25.12l2.775 1.774 2.777-6.297h11.182l2.817 6.295 2.774-1.773L11.144 0 0 25.12zm15.29-7.77H6.996l4.154-9.325 4.14 9.324zm43.682-3.044c0-3.494-2.856-6.327-6.38-6.327H43.76v3.247h8.83c1.717 0 3.107 1.376 3.107 3.08 0 1.7-1.39 3.078-3.106 3.078h-8.83V20.6h5.127v.032h3.245l3.188 6.26 2.772-1.773-2.626-5.167c2.08-1.043 3.506-3.178 3.506-5.647zm-26.264 8.14c-3.125 0-5.66-2.51-5.66-5.61 0-3.098 2.534-5.607 5.66-5.607h6.412V7.98h-6.412c-4.934 0-8.934 3.966-8.934 8.855 0 4.892 4 8.857 8.934 8.857 3.367 0 6.297-1.85 7.82-4.576l-2.763-1.767c-.93 1.836-2.845 3.095-5.057 3.095zm118.498-4.104c0 2.276-1.86 4.12-4.156 4.12-2.297 0-4.154-1.844-4.154-4.12V7.997h-3.26v10.345c0 4.06 3.318 7.35 7.414 7.35s7.414-3.29 7.414-7.35V7.997h-3.258v10.345zM92.293 7.98H84.18v3.248h8.113c1.715 0 3.104 1.376 3.104 3.08 0 1.7-1.392 3.078-3.104 3.078H84.18v7.732h3.26v-4.485h4.853c3.523 0 6.38-2.833 6.38-6.326 0-3.495-2.855-6.327-6.38-6.327zm39.456 17.14h3.257V13.306h-3.258V25.12zM175.43 7.422c-1.99 0-3.775.87-4.99 2.253-1.213-1.382-2.998-2.253-4.99-2.253-3.656 0-6.62 2.938-6.62 6.563v11.088h3.26V13.986c0-1.84 1.503-3.333 3.36-3.333 1.855 0 3.36 1.492 3.36 3.333v11.088h3.26V13.986c0-1.84 1.505-3.333 3.36-3.333 1.857 0 3.36 1.492 3.36 3.333v11.088h3.26V13.986c0-3.625-2.964-6.563-6.62-6.563zm-42.055-.416c-1.172 0-2.123.942-2.123 2.105 0 1.162.95 2.104 2.123 2.104s2.123-.943 2.123-2.104c0-1.162-.95-2.105-2.123-2.105zm-22.7.413c-5.09 0-9.218 4.09-9.218 9.137s4.126 9.138 9.218 9.138c5.09 0 9.217-4.092 9.217-9.138s-4.127-9.137-9.217-9.137zm0 15.03c-3.28 0-5.94-2.64-5.94-5.893 0-3.253 2.66-5.89 5.94-5.89 3.28 0 5.94 2.637 5.94 5.89.003 3.254-2.66 5.892-5.94 5.892zm13.073 2.67h3.258V5.91l-3.258 2.084V25.12z"/>
      </g>
    </g>
  </g>
</svg>
