<svg xmlns="http://www.w3.org/2000/svg" width="29.997" height="33.012" viewBox="0 0 29.997 33.012">
  <g>
    <g>
      <path fill-rule="evenodd" clip-rule="evenodd" fill="#21A4FF" d="M20.823 16.584l-.057-.076.057-.085 1.594-.437 7.58-4.683-1.648-3.05-1.642-3.047-7.583 4.686-1.148 1.253-.096.015-.036-.1.446-1.687V0h-6.582v9.373l.443 1.687-.035.1-.098-.015-1.15-1.253-7.58-4.686-1.643 3.046L0 11.302l7.58 4.684 1.59.437.06.085-.06.076-1.59.443L0 21.71l1.644 3.05 1.644 3.047 7.58-4.682 1.15-1.258.097-.014.036.094-.442 1.693v9.372h6.582V23.64l-.446-1.693.037-.094.097.014 1.148 1.258 7.583 4.682 1.64-3.046L30 21.71l-7.58-4.683"/>
    </g>
  </g>
</svg>
